<?xml version="1.0" encoding="UTF-8" standalone="no"?>
<!DOCTYPE svg PUBLIC "-//W3C//DTD SVG 1.1//EN" "http://www.w3.org/Graphics/SVG/1.1/DTD/svg11.dtd">
<!--Generated by Intaglio, www.PurgatoryDesign.com-->
<svg version="1.1" viewBox="105,245,193,35" width="193" height="35" xmlns="http://www.w3.org/2000/svg" xmlns:xlink="http://www.w3.org/1999/xlink"><path fill="#fff" d="M140.459,279.142 L131.092,279.142 L130.426,264.017 L130.146,257.98 C130.046,259.141,129.932,260.247,129.803,261.3 C129.674,262.352,129.516,263.373,129.33,264.361 L126.516,279.142 L119.211,279.142 L116.805,264.34 C116.661,263.48,116.468,262.005,116.225,259.914 C116.196,259.599,116.132,258.954,116.031,257.98 L115.816,264.103 L115.021,279.142 L105.482,279.142 L109.35,245.971 L120.5,245.971 L122.369,257.142 C122.527,258.059,122.666,259.055,122.788,260.129 C122.91,261.203,123.021,262.37,123.121,263.631 C123.307,261.525,123.565,259.642,123.895,257.98 L126.172,245.971 L137.236,245.971 Z M154.338,271.279 L162.76,271.451 C162.159,274.158,160.988,276.196,159.248,277.563 C157.507,278.931,155.234,279.615,152.426,279.615 C149.103,279.615,146.497,278.584,144.606,276.521 C142.73,274.43,141.792,271.573,141.792,267.949 C141.792,264.268,142.801,261.267,144.821,258.947 C146.84,256.613,149.447,255.445,152.641,255.445 C155.821,255.445,158.356,256.57,160.247,258.818 C162.137,261.081,163.083,264.082,163.083,267.82 L163.04,269.346 L150.407,269.346 C150.507,271.723,151.18,272.912,152.426,272.912 C153.4,272.912,154.038,272.368,154.338,271.279 Z M154.532,264.705 C154.532,264.275,154.482,263.881,154.381,263.523 C154.281,263.165,154.141,262.857,153.962,262.6 C153.783,262.342,153.572,262.138,153.329,261.987 C153.085,261.837,152.82,261.762,152.534,261.762 C151.932,261.762,151.445,262.037,151.073,262.589 C150.7,263.14,150.514,263.846,150.514,264.705 Z M164.759,255.918 L173.374,255.918 L173.374,269.002 C173.374,270.248,173.496,271.157,173.739,271.73 C173.997,272.203,174.484,272.439,175.2,272.439 C175.902,272.439,176.375,272.203,176.618,271.73 C176.876,271.258,177.005,270.348,177.005,269.002 L177.005,255.918 L185.62,255.918 L185.62,270.162 C185.62,271.107,185.545,271.963,185.395,272.729 C185.244,273.496,185.008,274.19,184.686,274.813 C184.363,275.436,183.948,276.006,183.44,276.521 C182.931,277.037,182.326,277.51,181.624,277.939 C179.734,279.057,177.592,279.615,175.2,279.615 C172.78,279.615,170.638,279.057,168.776,277.939 C168.06,277.51,167.448,277.041,166.94,276.532 C166.431,276.024,166.016,275.454,165.693,274.824 C165.371,274.194,165.135,273.496,164.984,272.729 C164.834,271.963,164.759,271.107,164.759,270.162 Z M188.285,279.142 L188.285,245.971 L198.705,245.971 C202.601,245.971,205.487,246.83,207.363,248.549 C209.268,250.31,210.22,252.588,210.22,255.381 C210.22,259.534,208.158,261.783,204.033,262.127 C206.382,262.471,208.104,263.244,209.2,264.447 C210.296,265.65,210.843,267.383,210.843,269.646 C210.843,272.497,209.92,274.788,208.072,276.521 C206.239,278.269,203.825,279.142,200.832,279.142 Z M197.244,271.945 C197.416,271.96,197.566,271.97,197.695,271.977 C197.824,271.985,197.931,271.988,198.017,271.988 C199.134,271.988,200.026,271.695,200.692,271.107 C201.358,270.52,201.691,269.732,201.691,268.744 C201.691,267.756,201.358,266.982,200.692,266.424 C200.026,265.865,199.113,265.586,197.953,265.586 L197.244,265.586 Z M197.244,258.861 L197.845,258.861 C198.92,258.861,199.768,258.611,200.391,258.109 C201.014,257.608,201.326,256.906,201.326,256.004 C201.326,254.085,200.273,253.125,198.168,253.125 C198.067,253.125,197.942,253.129,197.792,253.136 C197.641,253.143,197.459,253.154,197.244,253.168 Z M233.617,267.885 C233.617,271.465,232.629,274.316,230.653,276.435 C228.676,278.555,226.026,279.615,222.703,279.615 C219.438,279.615,216.838,278.534,214.905,276.371 C212.985,274.194,212.026,271.272,212.026,267.605 C212.026,263.939,213.007,260.995,214.969,258.775 C216.917,256.541,219.502,255.424,222.725,255.424 C226.119,255.424,228.783,256.534,230.717,258.754 C232.651,260.974,233.617,264.017,233.617,267.885 Z M225.26,267.605 C225.26,266.746,225.203,265.969,225.088,265.274 C224.974,264.58,224.809,263.985,224.594,263.491 C224.379,262.997,224.121,262.614,223.821,262.342 C223.52,262.07,223.183,261.934,222.811,261.934 C222.08,261.934,221.493,262.449,221.049,263.48 C220.605,264.383,220.383,265.736,220.383,267.541 C220.383,269.317,220.605,270.67,221.049,271.601 C221.493,272.633,222.087,273.148,222.832,273.148 C223.534,273.148,224.114,272.64,224.572,271.623 C225.031,270.491,225.26,269.152,225.26,267.605 Z M255.725,279.142 L247.11,279.142 L247.11,266.853 C247.11,265.794,247.006,265.056,246.799,264.641 C246.591,264.225,246.229,264.017,245.714,264.017 C244.511,264.017,243.909,265.156,243.909,267.434 L243.909,279.142 L235.294,279.142 L235.294,255.918 L243.909,255.918 C243.895,256.491,243.88,257.021,243.866,257.508 C243.852,257.995,243.83,258.446,243.802,258.861 L243.716,260.344 C245.105,257.064,247.139,255.424,249.817,255.424 C251.679,255.424,253.126,256.118,254.157,257.508 C255.203,258.897,255.725,260.831,255.725,263.309 Z M258.046,255.918 L266.661,255.918 L266.661,269.002 C266.661,270.248,266.783,271.157,267.027,271.73 C267.285,272.203,267.772,272.439,268.488,272.439 C269.189,272.439,269.662,272.203,269.906,271.73 C270.163,271.258,270.292,270.348,270.292,269.002 L270.292,255.918 L278.908,255.918 L278.908,270.162 C278.908,271.107,278.832,271.963,278.682,272.729 C278.532,273.496,278.295,274.19,277.973,274.813 C277.651,275.436,277.235,276.006,276.727,276.521 C276.218,277.037,275.613,277.51,274.911,277.939 C273.021,279.057,270.88,279.615,268.488,279.615 C266.067,279.615,263.926,279.057,262.064,277.939 C261.348,277.51,260.735,277.041,260.227,276.532 C259.718,276.024,259.303,275.454,258.981,274.824 C258.659,274.194,258.422,273.496,258.272,272.729 C258.121,271.963,258.046,271.107,258.046,270.162 Z M280.412,277.23 L283.549,270.785 C285.096,272.404,286.535,273.213,287.867,273.213 C288.984,273.213,289.543,272.812,289.543,272.01 C289.543,271.322,288.791,270.706,287.287,270.162 C283.234,268.73,281.207,266.46,281.207,263.351 C281.207,261.074,282.109,259.184,283.914,257.68 C285.733,256.176,288.003,255.424,290.725,255.424 C292.959,255.424,295.265,256.054,297.642,257.314 L294.699,263.609 C293.253,262.249,292.071,261.568,291.154,261.568 C290.252,261.568,289.801,261.934,289.801,262.664 C289.801,263.452,290.66,264.189,292.379,264.877 C294.527,265.722,295.988,266.617,296.762,267.562 C297.578,268.508,297.986,269.811,297.986,271.473 C297.986,273.865,297.12,275.82,295.387,277.338 C293.654,278.856,291.426,279.615,288.705,279.615 C287.402,279.615,286.105,279.45,284.816,279.121 C284.215,278.963,283.556,278.724,282.84,278.401 C282.124,278.079,281.314,277.689,280.412,277.23 Z"/></svg>
